<?xml version="1.0" encoding="utf-8"?>
<!-- Generator: Adobe Illustrator 27.9.0, SVG Export Plug-In . SVG Version: 6.00 Build 0)  -->
<svg version="1.1" id="Layer_1" xmlns="http://www.w3.org/2000/svg" xmlns:xlink="http://www.w3.org/1999/xlink" x="0px" y="0px"
	 viewBox="0 0 866 866" style="enable-background:new 0 0 866 866;" xml:space="preserve">
<style type="text/css">
	.fondo{fill-rule:evenodd;clip-rule:evenodd;fill:transparent;}
	.fondoB{opacity:0.5;fill-rule:evenodd;clip-rule:evenodd;fill:#FFFFFF;}
	.icon{fill:#FFFFFF;}
	.huellas{opacity:0.5;fill:#21376F;}
	.todoA{opacity:0.5;fill:#21376F;}
	.bicicleta{fill:#CCCCCC;}
	
	.st5{font-family: "Exo", sans-serif;font-weight: bolder;font-size:15px;fill:#21376F;}
	.contenidoTxt{font-family: "Exo", sans-serif;font-weight: bolder;font-size:15px;fill: black;}
</style>
<rect class="fondo" width="866" height="866"/>
<path class="fondoB" d="M42.9,98.8h636.3c-3.5,10.8-5.5,22.3-5.5,34.2c0,60.4,49,109.4,109.4,109.4c9.8,0,19.3-1.3,28.4-3.7v543.9
	c0,17-13.9,30.9-30.9,30.9H42.9c-17,0-30.9-13.9-30.9-30.9V129.7C12,112.7,25.9,98.8,42.9,98.8"/>
<g>
	<path class="todoA" d="M717.1,422.6c0-0.7-0.1-1.5-0.3-2.3c-0.2-0.9-0.4-1.8-0.6-2.7c-0.2-0.9-0.5-1.8-0.7-2.6
		c-0.2-0.8-0.5-1.5-0.7-2c-0.2-0.5-0.3-0.9-0.4-1h-13l0.6,9.4c0.2,2.7,0.9,4.7,2.1,6c1.2,1.3,2.8,1.9,4.8,1.9h2.3
		c1.4,0,2.5-0.3,3.4-0.9c0.9-0.6,1.5-1.4,1.9-2.4C716.9,425,717.1,423.9,717.1,422.6 M727.9,430.4c0,4.2-1.3,7.7-3.8,10.3
		c-2.5,2.6-6,4-10.4,4h-5c-4.2,0-7.7-1.5-10.5-4.5c-2.7-3-4.1-7.7-4.1-14V412h-3.9c-1.7,0-3.2,0.3-4.3,0.9c-1.1,0.6-2,1.8-2.5,3.5
		c-0.5,1.7-0.8,4.3-0.8,7.8V441h-9c-0.8-2.7-1.6-5.9-2.2-9.4c-0.6-3.6-0.9-7.9-0.9-13c0-4.7,0.6-8.6,1.7-11.9s3-5.8,5.7-7.5
		c2.7-1.7,6.5-2.6,11.3-2.6h38.1v12.2l-5.9,2.5c0.6,0.5,1.2,1.3,1.9,2.5c0.7,1.2,1.4,2.6,2.1,4.3c0.7,1.7,1.3,3.6,1.8,5.7
		C727.6,425.9,727.9,428.1,727.9,430.4z M714,511.6c0-3.1-0.3-5.7-1-7.8c-0.7-2.1-1.9-3.7-3.7-5c-1.8-1.2-4.3-2.1-7.6-2.7
		c-3.3-0.6-7.6-0.8-12.9-0.8c-5.6,0-10,0.3-13.4,0.8c-3.3,0.6-5.9,1.4-7.7,2.7c-1.8,1.2-3,2.9-3.6,5c-0.6,2.1-0.9,4.7-0.9,7.8
		c0,3,0.3,5.5,0.9,7.6c0.6,2.1,1.8,3.8,3.6,5.1c1.8,1.3,4.3,2.2,7.7,2.8c3.3,0.6,7.8,0.9,13.4,0.9c5.3,0,9.6-0.3,12.9-0.8
		c3.3-0.5,5.8-1.4,7.6-2.7c1.8-1.3,3-2.9,3.7-5.1C713.6,517.4,714,514.7,714,511.6z M727.9,511.6c0,5.3-0.5,9.9-1.5,13.9
		c-1,4-2.9,7.3-5.6,10c-2.7,2.7-6.7,4.7-11.8,6c-5.1,1.3-11.9,2-20.1,2c-8.3,0-15-0.7-20.2-2c-5.2-1.4-9.2-3.4-11.9-6
		c-2.8-2.6-4.7-5.9-5.7-9.9c-1-4-1.6-8.6-1.6-13.9c0-5.3,0.5-9.9,1.6-13.9c1-4,3-7.3,5.7-9.9c2.8-2.6,6.8-4.6,11.9-5.9
		c5.2-1.3,11.9-2,20.2-2c8.3,0,15,0.7,20.1,2c5.1,1.3,9.1,3.3,11.8,5.9c2.7,2.6,4.6,5.9,5.6,9.9
		C727.4,501.7,727.9,506.3,727.9,511.6z M713.4,596.9v-15.6c0-3.2-0.9-5.7-2.8-7.6c-1.8-1.9-4.6-3.3-8.3-4.1
		c-3.7-0.9-8.2-1.3-13.7-1.3c-5,0-9.1,0.3-12.4,0.8c-3.2,0.6-5.8,1.4-7.6,2.5c-1.8,1.1-3.1,2.4-3.8,4.1c-0.7,1.6-1,3.5-1,5.7v15.6
		H713.4z M727.2,612.4H650v-32.7c0-5.2,0.9-9.6,2.8-13c1.8-3.5,4.5-6.2,7.9-8.3c3.4-2.1,7.5-3.5,12.3-4.3c4.7-0.8,9.9-1.3,15.6-1.3
		c8.7,0,15.9,1,21.6,3c5.7,2,10,5,12.8,8.9c2.8,4,4.2,9,4.2,15V612.4z M714,655.5c0-3.1-0.3-5.7-1-7.8c-0.7-2.1-1.9-3.7-3.7-5
		c-1.8-1.2-4.3-2.1-7.6-2.7c-3.3-0.6-7.6-0.8-12.9-0.8c-5.6,0-10,0.3-13.4,0.8c-3.3,0.6-5.9,1.4-7.7,2.7c-1.8,1.2-3,2.9-3.6,5
		c-0.6,2.1-0.9,4.7-0.9,7.8c0,3,0.3,5.5,0.9,7.6c0.6,2.1,1.8,3.8,3.6,5.1c1.8,1.3,4.3,2.2,7.7,2.8c3.3,0.6,7.8,0.9,13.4,0.9
		c5.3,0,9.6-0.3,12.9-0.8c3.3-0.5,5.8-1.4,7.6-2.7c1.8-1.3,3-2.9,3.7-5.1C713.6,661.2,714,658.6,714,655.5z M727.9,655.5
		c0,5.3-0.5,9.9-1.5,13.9c-1,4-2.9,7.3-5.6,10c-2.7,2.7-6.7,4.7-11.8,6c-5.1,1.3-11.9,2-20.1,2c-8.3,0-15-0.7-20.2-2
		c-5.2-1.4-9.2-3.4-11.9-6c-2.8-2.6-4.7-5.9-5.7-9.9c-1-4-1.6-8.6-1.6-13.9c0-5.3,0.5-9.9,1.6-13.9c1-4,3-7.3,5.7-9.9
		c2.8-2.6,6.8-4.6,11.9-5.9c5.2-1.3,11.9-2,20.2-2c8.3,0,15,0.7,20.1,2c5.1,1.3,9.1,3.3,11.8,5.9c2.7,2.6,4.6,5.9,5.6,9.9
		C727.4,645.6,727.9,650.2,727.9,655.5z M727.2,729.9h-63.3V751H650v-57.9h13.9v21.3h63.3V729.9z"/>
	<path class="huellas" d="M725.1,344.1l2.2-0.2c2.8-0.3,4.9-2.8,4.6-5.6c-0.3-2.8-2.8-4.9-5.6-4.6l-2.2,0.2L725.1,344.1z"/>
	<path class="huellas" d="M722.2,344.4l-1-10.4c-1.4-0.2-3-0.8-4.6-1.4c-2.4-0.9-4.9-1.9-7.4-1.7c-7,0.6-9.8,4.7-9.5,8.2
		c0.2,2.4,3.2,8.5,13.9,7.5c2.4-0.2,3.9-0.8,5.4-1.3C720,345,721,344.6,722.2,344.4L722.2,344.4z"/>
	<path class="huellas" d="M705.4,326.7l2.2,0.2c2.8,0.3,5.3-1.7,5.6-4.5c0.3-2.8-1.7-5.3-4.5-5.6l-2.2-0.2L705.4,326.7z"/>
	<path class="huellas" d="M697.9,328c-2.4,0.9-4.9,1.8-7.4,1.6c-7-0.7-9.8-4.8-9.4-8.3c0.3-2.4,3.3-8.5,14-7.3c2.4,0.2,3.9,0.8,5.4,1.3
		c1,0.4,2,0.7,3.2,1l-1.1,10.4C701.1,326.8,699.5,327.4,697.9,328L697.9,328z"/>
	<path class="huellas" d="M679.6,344.1l2.2-0.2c2.8-0.3,4.9-2.8,4.6-5.6c-0.3-2.8-2.8-4.9-5.6-4.6l-2.2,0.2L679.6,344.1z"/>
	<path class="huellas" d="M676.7,344.4l-1-10.4c-1.4-0.2-3-0.8-4.6-1.4c-2.4-0.9-4.9-1.9-7.4-1.7c-7,0.6-9.8,4.7-9.5,8.2
		c0.2,2.4,3.2,8.5,13.9,7.5c2.4-0.2,3.9-0.8,5.4-1.3C674.4,345,675.4,344.6,676.7,344.4L676.7,344.4z"/>
	<path class="huellas" d="M659.8,326.7l2.2,0.2c2.8,0.3,5.3-1.7,5.6-4.5c0.3-2.8-1.7-5.3-4.5-5.6l-2.2-0.2L659.8,326.7z"/>
	<path class="huellas" d="M652.3,328c-2.4,0.9-4.9,1.8-7.4,1.6c-7-0.7-9.8-4.8-9.4-8.3c0.3-2.4,3.3-8.5,14-7.3c2.4,0.2,3.9,0.8,5.4,1.3
		c1,0.4,2,0.7,3.2,1l-1.1,10.4C655.5,326.8,653.9,327.4,652.3,328L652.3,328z"/>
</g>
<g>
	<path class="bicicleta" d="M809,171.8v-2.9c0-0.1,0.1-0.1,0.1-0.1h2.9c0.1,0,0.2,0.1,0.2,0.1v2.9c0,0.1-0.1,0.2-0.2,0.2h-2.9
		C809,172,809,171.9,809,171.8 M809,184.2v-0.5c0.2-0.8,0.3-1.6,0.4-2.6l2.7,0c0.1,0,0.2,0.1,0.2,0.2v2.9c0,0.1-0.1,0.1-0.2,0.1
		h-2.9C809,184.4,809,184.3,809,184.2z M830.4,191h-27.6v-2.1c1.8-0.2,3.3-0.9,4.4-2h7.3c0.1,0,0.1-0.1,0.1-0.2v-7.9
		c0-0.1-0.1-0.2-0.1-0.2l-5.3,0c-0.2-1.5-0.7-2.9-1.3-4.2h6.6c0.1,0,0.2-0.1,0.2-0.1v-7.9c0-0.1-0.1-0.2-0.2-0.2h-7.9
		c-0.1,0-0.1,0.1-0.1,0.2v5.6c-1-1.4-2.1-2.4-3.3-2.9l0-45.3c0-0.1,0.1-0.2,0.2-0.2h26.9c0.1,0,0.2,0.1,0.2,0.2L830.4,191z
		 M802.3,180.3c-0.1-0.7-0.7-1.2-1.4-1.1c-0.7,0.1-1.2,0.7-1.1,1.4l0.5,3.6v2.1c-2.7-0.4-4.1-2.3-4.1-5.7c0-4.9,3.7-9.5,5.3-9.5
		c1.9,0,5.3,4.8,5.3,9.5c0,3.4-1.3,5.2-4.1,5.7v-0.8l2.3-1.9c0.5-0.4,0.6-1.2,0.1-1.7c-0.4-0.5-1.2-0.6-1.7-0.1l-0.9,0.8
		L802.3,180.3z M794.3,184.1h-2.8c-0.1,0-0.1-0.1-0.1-0.1V181c0-0.1,0.1-0.1,0.1-0.1h2.3C793.8,182.1,794,183.1,794.3,184.1z
		 M794.6,168.6v3.1h-3.1c-0.1,0-0.1-0.1-0.1-0.1v-2.9c0-0.1,0.1-0.1,0.1-0.1h2.9C794.5,168.5,794.6,168.5,794.6,168.6L794.6,168.6z
		 M796.6,172.2c0,0,0,0.1-0.1,0.1L796.6,172.2L796.6,172.2z M800.3,191h-27.1v-6.1h0c0.8-1.5,1.3-3.3,1.3-5.4c0-2.1-0.4-4.1-1.2-5.7
		v-38.1c0-0.1,0.1-0.1,0.1-0.1h27.4v33.3c-1.3,0.3-2.5,1.3-3.6,2.7v-5.5c0-0.1-0.1-0.1-0.1-0.1H789c-0.1,0-0.1,0.1-0.1,0.1v7.9
		c0,0.1,0.1,0.1,0.1,0.1l6.4,0c-0.7,1.3-1.2,2.8-1.4,4.2h-5c-0.1,0-0.1,0.1-0.1,0.1v7.9c0,0.1,0.1,0.1,0.1,0.1h6.6
		c1.1,1.3,2.7,2,4.7,2.3L800.3,191L800.3,191z M767.8,186.3v-0.6l1.6-1.1c0.6-0.4,0.7-1.2,0.3-1.7c-0.4-0.6-1.2-0.7-1.7-0.3
		l-0.2,0.1v-2.1c0-0.7-0.6-1.2-1.2-1.2c-0.7,0-1.2,0.6-1.2,1.2v5.8c-2.5-0.6-4.1-3.2-4.1-6.8c0-4.5,2.4-8.2,5.3-8.2
		c2.9,0,5.3,3.8,5.3,8.2C771.9,183.1,770.3,185.6,767.8,186.3z M770.7,191h-2.9v-2.2c1.1-0.2,2-0.6,2.9-1.1V191z M759.3,182.9h-12.4
		c-0.1,0-0.2-0.1-0.2-0.2v-1.6c0-0.1,0.1-0.1,0.2-0.1h12.1C759,181.7,759.1,182.3,759.3,182.9z M760.2,170.7v1.8h-13.4
		c-0.1,0-0.2-0.1-0.2-0.2v-1.6c0-0.1,0.1-0.1,0.2-0.1h13.2C760.1,170.6,760.2,170.6,760.2,170.7L760.2,170.7z M765.4,191h-23.1V145
		c0-0.1,0.1-0.1,0.2-0.1h21.8c0.1,0,0.2,0.1,0.2,0.1l0,24.2c-0.6,0.2-1.1,0.6-1.6,1v-2c0-0.1-0.1-0.2-0.2-0.2h-18.2
		c-0.1,0-0.2,0.1-0.2,0.2v6.6c0,0.1,0.1,0.2,0.2,0.2h15.2c-0.4,1.1-0.6,2.3-0.7,3.6l-14.5,0c-0.1,0-0.2,0.1-0.2,0.1v6.6
		c0,0.1,0.1,0.2,0.2,0.2h16c1.2,1.8,2.9,3.1,5,3.4L765.4,191z M740.8,142.4h-0.8c-0.1,0-0.2,0.1-0.2,0.2v1.5c0,0-0.1-0.1-0.2-0.1
		h-1.9c-0.1,0-0.2-0.1-0.2-0.2V141c0-0.1,0.1-0.2,0.2-0.2h2.9c0.1,0,0.2,0.1,0.2,0.2L740.8,142.4L740.8,142.4z M754.9,139.6v2.8h-8
		v-2.8c0-0.1,0.1-0.2,0.2-0.2h7.7C754.8,139.4,754.9,139.5,754.9,139.6z M739.8,150.7h-4.5c-0.1,0-0.2,0.1-0.2,0.2v7.8
		c0,0.1,0.1,0.2,0.2,0.2h4.5v4.2h-4.5c-0.1,0-0.2,0.1-0.2,0.2v7.8c0,0.1,0.1,0.2,0.2,0.2h4.5v4.2h-3.2c-1.2-3.6-3.4-6.6-5.8-6.7
		l0-46.5c0-0.1,0.1-0.1,0.1-0.1h28.1c0.1,0,0.1,0.1,0.1,0.1v20.2h-1.9l0-5.3c0-0.1-0.1-0.2-0.1-0.2h-12.7c-0.1,0-0.2,0.1-0.2,0.2
		v5.3h-1.1v-3.9c0-0.1-0.1-0.2-0.2-0.2h-7.8c-0.1,0-0.2,0.1-0.2,0.2v7.8c0,0.1,0.1,0.2,0.2,0.2h4.4c0.1,0,0.1,0,0.1-0.1L739.8,150.7
		L739.8,150.7z M739.8,156.4h-2.1c-0.1,0-0.2-0.1-0.2-0.2v-2.9c0-0.1,0.1-0.2,0.2-0.2h2.1V156.4z M739.8,168.8h-2.1
		c-0.1,0-0.2-0.1-0.2-0.2v-2.9c0-0.1,0.1-0.2,0.2-0.2l2.1,0V168.8z M739.8,181.2h-2.3c0-0.2,0-0.3,0-0.4c0-0.9-0.1-1.8-0.3-2.8h2.5
		C739.8,178,739.8,181.2,739.8,181.2z M739.8,191h-7.9v-2.1c2.3-0.3,4.6-1.6,5.4-5.1h2.5V191z M730.4,181.1c-0.3-0.6-1-0.9-1.6-0.6
		c-0.6,0.3-0.9,1-0.6,1.6l1.3,2.7v1.5c-1.7-0.3-3.1-1.5-3.1-5.5c0-5.1,2.9-9.6,4.4-9.6c1.4,0,4.4,4.5,4.4,9.6c0,4-1.5,5.2-3.2,5.5
		v-0.8l1.8-1.8c0.5-0.5,0.5-1.3,0-1.7c-0.5-0.5-1.3-0.5-1.7,0l-0.8,0.8L730.4,181.1z M739.1,116.7c0-0.1,0.1-0.1,0.1-0.1h11
		c0.1,0,0.1,0.1,0.1,0.1v3h-11.3L739.1,116.7L739.1,116.7z M800.5,125.7v1.6c0,0.1-0.1,0.2-0.2,0.2h-7.5c-0.1,0-0.2-0.1-0.2-0.2
		v-1.6c0-0.1,0.1-0.2,0.2-0.2h7.5C800.4,125.5,800.5,125.6,800.5,125.7z M786.9,105c0-0.2,0.2-0.3,0.4-0.3l18.4,5.3
		c0.1,0,0.3,0.2,0.3,0.3v10.8h-5.1c-0.1,0-0.2,0.1-0.2,0.2v1.7h-10.4c-0.1,0-0.2,0.1-0.2,0.2v6.5c0,0.1,0.1,0.2,0.2,0.2h10.4v3.2
		l-13.8,0L786.9,105z M818,116.8c0-0.1,0.1-0.2,0.2-0.2h7.2c0.1,0,0.2,0.1,0.2,0.2v4.4H818V116.8z M834.1,191h-1.3v-69.6
		c0-0.1-0.1-0.2-0.2-0.2H828v-6.9c0-0.1-0.1-0.2-0.2-0.2h-12.1c-0.1,0-0.2,0.1-0.2,0.2v6.9h-7.1v-12.7c0-0.2-0.1-0.3-0.3-0.3
		l-23.4-6.7c-0.2,0-0.4,0.1-0.4,0.3v31.4l-13.6,0c-0.1,0-0.1,0.1-0.1,0.1v37.2c-1.1-1-2.5-1.6-3.9-1.6v-26.2c0-0.1-0.1-0.2-0.2-0.2
		h-4.9l0-22.7c0-0.1-0.1-0.1-0.1-0.1h-8.7l0-5.4c0-0.1-0.1-0.1-0.1-0.1h-15.9c-0.1,0-0.1,0.1-0.1,0.1v5.4h-8.2
		c-0.1,0-0.1,0.1-0.1,0.1v49.9c-2.6,2-4.5,7-4.5,11.2c0,5.8,2.8,7.6,5.6,8v2.1l-4.5,0c-0.1,0-0.2,0.1-0.2,0.2v2.1
		c0,0.1,0.1,0.2,0.2,0.2h109.2c0.1,0,0.2-0.1,0.2-0.2v-2.2C834.3,191,834.2,191,834.1,191L834.1,191z"/>
	<path class="bicicleta" d="M812.2,134.6c0,0.1-0.1,0.1-0.2,0.1h-2.9c-0.1,0-0.2-0.1-0.2-0.1v-2.9c0-0.1,0.1-0.2,0.2-0.2h2.9
		c0.1,0,0.1,0.1,0.1,0.2V134.6z M814.5,129.1h-7.9c-0.1,0-0.1,0.1-0.1,0.2v7.9c0,0.1,0.1,0.2,0.1,0.2h7.9c0.1,0,0.2-0.1,0.2-0.2
		v-7.9C814.7,129.2,814.6,129.1,814.5,129.1z"/>
	<path class="bicicleta" d="M812.2,147c0,0.1-0.1,0.2-0.2,0.2h-2.9c-0.1,0-0.2-0.1-0.2-0.2v-2.9c0-0.1,0.1-0.2,0.2-0.2h2.9
		c0.1,0,0.1,0.1,0.1,0.2V147z M814.5,141.5h-7.9c-0.1,0-0.1,0.1-0.1,0.2v7.9c0,0.1,0.1,0.2,0.1,0.2h7.9c0.1,0,0.2-0.1,0.2-0.2v-7.9
		C814.7,141.5,814.6,141.5,814.5,141.5z"/>
	<path class="bicicleta" d="M812.2,159.4c0,0.1-0.1,0.1-0.2,0.1h-2.9c-0.1,0-0.2-0.1-0.2-0.1v-2.9c0-0.1,0.1-0.1,0.2-0.1l2.9,0
		c0.1,0,0.1,0.1,0.1,0.2V159.4z M814.5,153.9h-7.9c-0.1,0-0.1,0.1-0.1,0.2v7.9c0,0.1,0.1,0.1,0.1,0.1h7.9c0.1,0,0.2-0.1,0.2-0.2V154
		C814.7,153.9,814.6,153.9,814.5,153.9z"/>
	<path class="bicicleta" d="M824.6,134.6c0,0.1-0.1,0.1-0.2,0.1h-2.9c-0.1,0-0.1-0.1-0.1-0.1v-2.9c0-0.1,0.1-0.2,0.1-0.2h2.9
		c0.1,0,0.2,0.1,0.2,0.2V134.6z M826.9,129.1H819c-0.1,0-0.2,0.1-0.2,0.2v7.9c0,0.1,0.1,0.2,0.2,0.2h7.9c0.1,0,0.2-0.1,0.2-0.2v-7.9
		C827.1,129.2,827,129.1,826.9,129.1z"/>
	<path class="bicicleta" d="M824.6,147c0,0.1-0.1,0.2-0.2,0.2h-2.9c-0.1,0-0.1-0.1-0.1-0.2v-2.9c0-0.1,0.1-0.2,0.1-0.2h2.9
		c0.1,0,0.2,0.1,0.2,0.2V147z M826.9,141.5H819c-0.1,0-0.2,0.1-0.2,0.2v7.9c0,0.1,0.1,0.2,0.2,0.2h7.9c0.1,0,0.2-0.1,0.2-0.2v-7.9
		C827.1,141.5,827,141.5,826.9,141.5z"/>
	<path class="bicicleta" d="M824.6,159.4c0,0.1-0.1,0.1-0.2,0.1h-2.9c-0.1,0-0.1-0.1-0.1-0.1v-2.9c0-0.1,0.1-0.1,0.1-0.1l2.9,0
		c0.1,0,0.2,0.1,0.2,0.2V159.4z M826.9,153.9H819c-0.1,0-0.2,0.1-0.2,0.2v7.9c0,0.1,0.1,0.1,0.2,0.1h7.9c0.1,0,0.2-0.1,0.2-0.2V154
		C827.1,153.9,827,153.9,826.9,153.9z"/>
	<path class="bicicleta" d="M824.6,171.8c0,0.1-0.1,0.2-0.2,0.2h-2.9c-0.1,0-0.1-0.1-0.1-0.2v-2.9c0-0.1,0.1-0.2,0.1-0.2h2.9
		c0.1,0,0.2,0.1,0.2,0.2V171.8z M826.9,166.3H819c-0.1,0-0.2,0.1-0.2,0.2v7.9c0,0.1,0.1,0.2,0.2,0.2h7.9c0.1,0,0.2-0.1,0.2-0.2v-7.9
		C827.1,166.3,827,166.3,826.9,166.3z"/>
	<path class="bicicleta" d="M824.6,184.2c0,0.1-0.1,0.1-0.2,0.1h-2.9c-0.1,0-0.1-0.1-0.1-0.1v-2.9c0-0.1,0.1-0.2,0.1-0.2h2.9
		c0.1,0,0.2,0.1,0.2,0.2V184.2z M826.9,178.7H819c-0.1,0-0.2,0.1-0.2,0.2v7.9c0,0.1,0.1,0.1,0.2,0.1h7.9c0.1,0,0.2-0.1,0.2-0.2v-7.9
		C827.1,178.7,827,178.7,826.9,178.7z"/>
	<path class="bicicleta" d="M782.2,146.7c0,0.1-0.1,0.1-0.1,0.1h-2.9c-0.1,0-0.1-0.1-0.1-0.1v-2.9c0-0.1,0.1-0.1,0.1-0.1l2.9,0
		c0.1,0,0.1,0.1,0.1,0.1V146.7z M784.5,141.2h-7.9c-0.1,0-0.1,0.1-0.1,0.1v7.9c0,0.1,0.1,0.1,0.1,0.1h7.9c0.1,0,0.1-0.1,0.1-0.1
		v-7.9C784.7,141.2,784.6,141.2,784.5,141.2z"/>
	<path class="bicicleta" d="M782.2,159.1c0,0.1-0.1,0.1-0.1,0.1h-2.9c-0.1,0-0.1-0.1-0.1-0.1v-2.9c0-0.1,0.1-0.1,0.1-0.1h2.9
		c0.1,0,0.1,0.1,0.1,0.1V159.1z M784.5,153.6h-7.9c-0.1,0-0.1,0.1-0.1,0.1v7.9c0,0.1,0.1,0.1,0.1,0.1l7.9,0c0.1,0,0.1-0.1,0.1-0.1
		v-7.9C784.7,153.6,784.6,153.6,784.5,153.6z"/>
	<path class="bicicleta" d="M782.2,171.5c0,0.1-0.1,0.1-0.1,0.1h-2.9c-0.1,0-0.1-0.1-0.1-0.1v-2.9c0-0.1,0.1-0.1,0.1-0.1h2.9
		c0.1,0,0.1,0.1,0.1,0.1V171.5z M784.5,166h-7.9c-0.1,0-0.1,0.1-0.1,0.1v7.9c0,0.1,0.1,0.1,0.1,0.1h7.9c0.1,0,0.1-0.1,0.1-0.1v-7.9
		C784.7,166,784.6,166,784.5,166z"/>
	<path class="bicicleta" d="M782.2,184c0,0.1-0.1,0.1-0.1,0.1h-2.9c-0.1,0-0.1-0.1-0.1-0.1V181c0-0.1,0.1-0.1,0.1-0.1h2.9
		c0.1,0,0.1,0.1,0.1,0.1V184z M784.5,178.4h-7.9c-0.1,0-0.1,0.1-0.1,0.1v7.9c0,0.1,0.1,0.1,0.1,0.1h7.9c0.1,0,0.1-0.1,0.1-0.1v-7.9
		C784.7,178.4,784.6,178.4,784.5,178.4z"/>
	<path class="bicicleta" d="M791.4,143.8c0-0.1,0.1-0.1,0.1-0.1h2.9c0.1,0,0.1,0.1,0.1,0.1v2.9c0,0.1-0.1,0.1-0.1,0.1h-2.9
		c-0.1,0-0.1-0.1-0.1-0.1V143.8z M789,149.4h7.9c0.1,0,0.1-0.1,0.1-0.1v-7.9c0-0.1-0.1-0.1-0.1-0.1H789c-0.1,0-0.1,0.1-0.1,0.1v7.9
		C788.9,149.3,788.9,149.4,789,149.4z"/>
	<path class="bicicleta" d="M791.4,156.2c0-0.1,0.1-0.1,0.1-0.1h2.9c0.1,0,0.1,0.1,0.1,0.1v2.9c0,0.1-0.1,0.1-0.1,0.1h-2.9
		c-0.1,0-0.1-0.1-0.1-0.1V156.2z M789,161.8h7.9c0.1,0,0.1-0.1,0.1-0.1v-7.9c0-0.1-0.1-0.1-0.1-0.1H789c-0.1,0-0.1,0.1-0.1,0.1v7.9
		C788.9,161.7,788.9,161.8,789,161.8z"/>
	<path class="bicicleta" d="M746.7,149.7c0-0.1,0.1-0.2,0.2-0.2h13.2c0.1,0,0.2,0.1,0.2,0.2v1.6c0,0.1-0.1,0.1-0.2,0.1h-13.2
		c-0.1,0-0.1-0.1-0.1-0.2V149.7z M744.4,154h18.2c0.1,0,0.2-0.1,0.2-0.2v-6.6c0-0.1-0.1-0.1-0.2-0.1h-18.2c-0.1,0-0.2,0.1-0.2,0.1
		v6.6C744.2,153.9,744.3,154,744.4,154z"/>
	<path class="bicicleta" d="M746.7,160.2c0-0.1,0.1-0.2,0.2-0.2h13.2c0.1,0,0.2,0.1,0.2,0.2v1.6c0,0.1-0.1,0.2-0.2,0.2h-13.2
		c-0.1,0-0.1-0.1-0.1-0.2V160.2z M744.4,164.4h18.2c0.1,0,0.2-0.1,0.2-0.2v-6.6c0-0.1-0.1-0.2-0.2-0.2l-18.2,0
		c-0.1,0-0.2,0.1-0.2,0.2v6.6C744.2,164.4,744.3,164.4,744.4,164.4z"/>
	<path class="bicicleta" d="M792.6,115.2c0-0.1,0.1-0.2,0.2-0.2h7.5c0.1,0,0.2,0.1,0.2,0.2v1.6c0,0.1-0.1,0.2-0.2,0.2h-7.5
		c-0.1,0-0.2-0.1-0.2-0.2V115.2z M790.3,119.4h12.5c0.1,0,0.2-0.1,0.2-0.2v-6.5c0-0.1-0.1-0.2-0.2-0.2h-12.5c-0.1,0-0.2,0.1-0.2,0.2
		v6.5C790.1,119.4,790.2,119.4,790.3,119.4z"/>
	<path class="bicicleta" d="M749.9,128.6c0-0.1,0.1-0.2,0.2-0.2h2.9c0.1,0,0.2,0.1,0.2,0.2v2.9c0,0.1-0.1,0.2-0.2,0.2h-2.9
		c-0.1,0-0.2-0.1-0.2-0.2V128.6z M747.6,134.1h7.8c0.1,0,0.2-0.1,0.2-0.2v-7.8c0-0.1-0.1-0.2-0.2-0.2h-7.8c-0.1,0-0.2,0.1-0.2,0.2
		v7.8C747.5,134,747.5,134.1,747.6,134.1z"/>
	<path class="bicicleta" d="M737.5,128.6c0-0.1,0.1-0.2,0.2-0.2h2.9c0.1,0,0.2,0.1,0.2,0.2v2.9c0,0.1-0.1,0.2-0.2,0.2h-2.9
		c-0.1,0-0.2-0.1-0.2-0.2V128.6z M735.2,134.1h7.8c0.1,0,0.2-0.1,0.2-0.2v-7.8c0-0.1-0.1-0.2-0.2-0.2h-7.8c-0.1,0-0.2,0.1-0.2,0.2
		v7.8C735.1,134,735.1,134.1,735.2,134.1z"/>
	<path class="bicicleta" d="M837,175.8c6-9.6,9.4-21,9.4-33.1c0-1.5,1.3-2.8,2.8-2.8c1.5,0,2.8,1.3,2.8,2.8c0,16.2-5.6,31.1-15,42.9V175.8
		z M721.3,172.8c-4.4-9.1-6.9-19.3-6.9-30.1c0-38,30.9-68.8,68.8-68.8c1.5,0,2.8,1.3,2.8,2.8c0,1.5-1.3,2.8-2.8,2.8
		c-25.6,0-47.7,15.3-57.6,37.2c-0.8,0.8-1.3,1.9-1.3,3.1v0.1c-2.8,7.1-4.3,14.8-4.3,22.8c0,8.1,1.5,15.8,4.3,22.8v2.3
		C723,169.3,722,171,721.3,172.8z M783.2,211.5c-15.6,0-29.9-5.2-41.5-14h10.1c9.2,5.3,20,8.3,31.4,8.3c11.4,0,22.1-3,31.4-8.3h10.1
		C813.1,206.3,798.7,211.5,783.2,211.5z"/>
	<path class="bicicleta" d="M798,96.1c-4,0-7.2-3.2-7.2-7.2c0-4,3.2-7.2,7.2-7.2c4,0,7.2,3.2,7.2,7.2C805.2,92.9,802,96.1,798,96.1
		 M798,79.7c-5.1,0-9.2,4.1-9.2,9.2c0,5.1,4.1,9.2,9.2,9.2c5.1,0,9.2-4.1,9.2-9.2C807.2,83.8,803.1,79.7,798,79.7z"/>
	<path class="bicicleta" d="M824.9,96.1c-4,0-7.2-3.2-7.2-7.2c0-4,3.2-7.2,7.2-7.2c4,0,7.2,3.2,7.2,7.2C832.1,92.9,828.8,96.1,824.9,96.1
		 M824.9,79.7c-5.1,0-9.2,4.1-9.2,9.2c0,5.1,4.1,9.2,9.2,9.2c5.1,0,9.2-4.1,9.2-9.2C834,83.8,829.9,79.7,824.9,79.7z"/>
	<path class="bicicleta" d="M815,74.3c0.4,0.3,0.8,0.5,1.3,0.5c0.5,0,1.1-0.2,1.5-0.6c0.7-0.8,0.7-2.1-0.1-2.8l-9.5-8.6
		c-0.2-0.2-0.4-0.4-0.6-0.5c-1.5-1-3.5-0.7-4.6,0.8l-6.7,9.5c-1,1.5-0.7,3.5,0.8,4.6c0.6,0.4,1.2,0.6,1.9,0.6c0.1,0,0.2,0,0.3,0
		c0.1,0,0.1,0,0.2,0c5,0,9.4,4.8,9.4,10.3c0,1.3,1,2.3,2.3,2.3c1.3,0,2.3-1,2.3-2.3c0-6.6-4.3-12.3-10-14.2l4.3-6.1L815,74.3z"/>
	<path class="bicicleta" d="M813.2,58.3c0-2.1-1.7-3.8-3.8-3.8c-2.1,0-3.8,1.7-3.8,3.8c0,2.1,1.7,3.8,3.8,3.8
		C811.5,62,813.2,60.3,813.2,58.3"/>
	<path class="bicicleta" d="M819.6,70.4c2,0,3.6,2.6,3.6,5.7c0,0.5,0.4,1,1,1c0.5,0,1-0.4,1-1c0-4.3-2.4-7.7-5.6-7.7c-0.5,0-1,0.4-1,1
		C818.6,69.9,819.1,70.4,819.6,70.4"/>
</g>
<path class="fondoB" d="M52.3,227.7h511.1c2.3,0,4.2-1.9,4.2-4.2v-84.9c0-2.3-1.9-4.2-4.2-4.2H52.3c-2.3,0-4.2,1.9-4.2,4.2v84.9
	C48.1,225.8,50,227.7,52.3,227.7"/>
<g>
	<path class="st5" d="M91.5,175.9v-9.8c0-1.1-0.9-2-2-2c-1.1,0-2,0.9-2,2v7.8h-5.9c-1.1,0-2,0.9-2,2c0,1.1,0.9,2,2,2h7.8
		C90.7,177.8,91.5,176.9,91.5,175.9z"/>
	<path class="st5" d="M111.1,156.3c-1.1,0-2,0.9-2,2v4.6c-4.3-6.6-11.7-10.5-19.6-10.5c-13,0-23.5,10.5-23.5,23.5
		c0,9.7,5.9,18.4,14.9,21.9c0.2,0.1,0.5,0.1,0.7,0.1c0,0,0,0,0,0c1.1,0,2-0.9,2-2c0-0.8-0.5-1.5-1.2-1.8C75,191.2,70,183.9,70,175.9
		c0-10.8,8.8-19.6,19.6-19.6c7,0,13.5,3.7,16.9,9.8l-5.2,0c-1.1,0-2,0.9-2,2c0,1.1,0.9,2,2,2h5.9c3.2,0,5.9-2.6,5.9-5.9v-5.9
		C113.1,157.2,112.2,156.3,111.1,156.3z"/>
	<text transform="matrix(1 0 0 1 89.0205 194.207)" class="st5  ">1min</text>
</g>
<g>
	<path class="icon" d="M543.7,165.4c-0.1,0-0.1-0.1-0.2-0.1L502,151c0,0,0,0,0,0c-0.3-0.1-0.6-0.1-0.9,0c0,0,0,0,0,0l-41.5,14.3
		c-0.1,0-0.1,0.1-0.2,0.1c-0.5,0.3-0.8,0.7-0.8,1.3s0.3,1,0.8,1.3c0.1,0,0.1,0.1,0.2,0.1l10.5,3.6v13.1c-2.1,0.6-3.6,2.5-3.6,4.8
		c0,1.7,0.9,3.3,2.3,4.2c-0.2,0.9-0.4,1.8-0.6,2.9c-0.5,3-1,6.9-1,11.5c0,0.3,0.1,0.6,0.2,0.8c0.5,0.8,1.9,2.1,4.1,2.1
		c2.1,0,3.5-1.3,4.1-2.1c0.2-0.2,0.2-0.5,0.2-0.8c0-4.6-0.4-8.4-1-11.5c-0.2-1.1-0.4-2.1-0.6-2.9c1.4-0.9,2.3-2.5,2.3-4.2
		c0-2.3-1.5-4.2-3.6-4.8v-12.1l28.2,9.7c0,0,0,0,0,0c0.3,0.1,0.6,0.1,0.9,0c0,0,0,0,0,0l41.5-14.3c0.1,0,0.1-0.1,0.2-0.1
		c0.5-0.3,0.8-0.7,0.8-1.3S544.1,165.7,543.7,165.4L543.7,165.4z"/>
	<path class="icon" d="M501.5,185.5c-0.2,0-0.3,0-0.5-0.1l-22.4-7.7v20.5c0,0.8,0.6,1.4,1.4,1.4c0.1,0,13.9,0.1,20.6,5.4
		c0.3,0.2,0.6,0.3,0.9,0.3c0.3,0,0.6-0.1,0.9-0.3c6.7-5.3,20.4-5.4,20.6-5.4c0.8,0,1.4-0.6,1.4-1.4v-20.5l-22.4,7.7
		C501.8,185.5,501.7,185.5,501.5,185.5L501.5,185.5z"/>
</g>
<path class="fondoB" d="M52.3,447.8h511.1c2.3,0,4.2-1.9,4.2-4.2v-84.9c0-2.3-1.9-4.2-4.2-4.2H52.3c-2.3,0-4.2,1.9-4.2,4.2v84.9
	C48.1,445.9,50,447.8,52.3,447.8"/>
<path class="icon" d="M526.6,413h-14.5v14.5h-21.2V413h-14.5v-21.2h14.5v-14.5l21.2,0v14.5h14.5L526.6,413L526.6,413z M501.5,365.2
	c-19.8,0-35.9,16.1-35.9,35.9c0,19.8,16.1,35.9,35.9,35.9s35.9-16.1,35.9-35.9C537.4,381.3,521.3,365.2,501.5,365.2z"/>
<g>
	<path class="st5" d="M91.5,396v-9.8c0-1.1-0.9-2-2-2c-1.1,0-2,0.9-2,2v7.8h-5.9c-1.1,0-2,0.9-2,2c0,1.1,0.9,2,2,2h7.8
		C90.7,397.9,91.5,397,91.5,396z"/>
	<path class="st5" d="M111.1,376.4c-1.1,0-2,0.9-2,2v4.6c-4.3-6.6-11.7-10.5-19.6-10.5c-13,0-23.5,10.5-23.5,23.5
		c0,9.7,5.9,18.4,14.9,21.9c0.2,0.1,0.5,0.1,0.7,0.1c0,0,0,0,0,0c1.1,0,2-0.9,2-2c0-0.8-0.5-1.5-1.2-1.8C75,411.3,70,404,70,395.9
		c0-10.8,8.8-19.6,19.6-19.6c7,0,13.5,3.7,16.9,9.8l-5.2,0c-1.1,0-2,0.9-2,2c0,1.1,0.9,2,2,2h5.9c3.2,0,5.9-2.6,5.9-5.9v-5.9
		C113.1,377.3,112.2,376.4,111.1,376.4z"/>
	<text transform="matrix(1 0 0 1 89.0205 414.3037)" class="st5  ">30min</text>
</g>
<path class="fondoB" d="M52.3,557.8h511.1c2.3,0,4.2-1.9,4.2-4.2v-84.9c0-2.3-1.9-4.2-4.2-4.2H52.3c-2.3,0-4.2,1.9-4.2,4.2v84.9
	C48.1,555.9,50,557.8,52.3,557.8"/>
<g>
	<path class="st5" d="M91.5,506v-9.8c0-1.1-0.9-2-2-2c-1.1,0-2,0.9-2,2v7.8h-5.9c-1.1,0-2,0.9-2,2c0,1.1,0.9,2,2,2h7.8
		C90.7,508,91.5,507.1,91.5,506z"/>
	<path class="st5" d="M111.1,486.5c-1.1,0-2,0.9-2,2v4.6c-4.3-6.6-11.7-10.5-19.6-10.5c-13,0-23.5,10.5-23.5,23.5
		c0,9.7,5.9,18.4,14.9,21.9c0.2,0.1,0.5,0.1,0.7,0.1c0,0,0,0,0,0c1.1,0,2-0.9,2-2c0-0.8-0.5-1.5-1.2-1.8C75,521.3,70,514.1,70,506
		c0-10.8,8.8-19.6,19.6-19.6c7,0,13.5,3.7,16.9,9.8l-5.2,0c-1.1,0-2,0.9-2,2c0,1.1,0.9,2,2,2h5.9c3.2,0,5.9-2.6,5.9-5.9v-5.9
		C113.1,487.3,112.2,486.5,111.1,486.5z"/>
	<text transform="matrix(1 0 0 1 89.0205 524.3525)" class="st5  ">1min</text>
</g>
<path class="fondoB" d="M52.3,337.7h511.1c2.3,0,4.2-1.9,4.2-4.2v-84.9c0-2.3-1.9-4.2-4.2-4.2H52.3c-2.3,0-4.2,1.9-4.2,4.2v84.9
	C48.1,335.8,50,337.7,52.3,337.7"/>
<g>
	<path class="icon" d="M540.3,287.8c0,1.9-1.7,3.6-3.6,3.6H529c-1.9,0-3.6-1.7-3.6-3.6v-5.2c0-1.9,1.7-3.6,3.6-3.6l7.7,0
		c1.9,0,3.6,1.7,3.6,3.6V287.8z M521.6,291.9h-14.9v-12.4h14.9V291.9z M501.8,291.9h-14.9v-12.4h14.9V291.9z M481.4,292.2h-14.9
		v-12.4h14.9V292.2z M543.6,282.5c0-4.7-3-8.5-6.3-8.5l-71.5,0c-3.6,0-6.3,3.9-6.3,8.5V301l9.9,0c0.6-3.9,3.9-6.6,7.7-6.6
		c3.9,0,7.2,3,7.7,6.6H518c0.6-3.9,3.9-6.6,7.7-6.6c3.9,0,7.2,3,7.7,6.6h10.2V282.5z"/>
	<path class="icon" d="M483.1,302.1c0-3.3-2.7-6.1-6.1-6.1c-3.3,0-6.1,2.7-6.1,6.1c0,3.3,2.7,6.1,6.1,6.1
		C480.4,308.1,483.1,305.4,483.1,302.1"/>
	<path class="icon" d="M531.8,302.1c0-3.3-2.7-6.1-6.1-6.1c-3.3,0-6.1,2.7-6.1,6.1c0,3.3,2.7,6.1,6.1,6.1
		C529.1,308.1,531.8,305.4,531.8,302.1"/>
	<rect x="459.4" y="302.4" class="icon" width="8.3" height="1.9"/>
</g>
<g>
	<path class="st5" d="M91.5,285.9v-9.8c0-1.1-0.9-2-2-2c-1.1,0-2,0.9-2,2v7.8h-5.9c-1.1,0-2,0.9-2,2c0,1.1,0.9,2,2,2h7.8
		C90.7,287.9,91.5,287,91.5,285.9z"/>
	<path class="st5" d="M111.1,266.4c-1.1,0-2,0.9-2,2v4.6c-4.3-6.6-11.7-10.5-19.6-10.5c-13,0-23.5,10.5-23.5,23.5
		c0,9.7,5.9,18.4,14.9,21.9c0.2,0.1,0.5,0.1,0.7,0.1c0,0,0,0,0,0c1.1,0,2-0.9,2-2c0-0.8-0.5-1.5-1.2-1.8C75,301.2,70,294,70,285.9
		c0-10.8,8.8-19.6,19.6-19.6c7,0,13.5,3.7,16.9,9.8l-5.2,0c-1.1,0-2,0.9-2,2c0,1.1,0.9,2,2,2h5.9c3.2,0,5.9-2.6,5.9-5.9v-5.9
		C113.1,267.2,112.2,266.4,111.1,266.4z"/>
	<text transform="matrix(1 0 0 1 89.0205 304.2554)" class="st5  ">5min</text>
</g>
<path class="fondoB" d="M52.3,667.9h511.1c2.3,0,4.2-1.9,4.2-4.2v-84.9c0-2.3-1.9-4.2-4.2-4.2H52.3c-2.3,0-4.2,1.9-4.2,4.2v84.9
	C48.1,666,50,667.9,52.3,667.9"/>
<g>
	<path class="st5" d="M91.5,616.1v-9.8c0-1.1-0.9-2-2-2c-1.1,0-2,0.9-2,2v7.8h-5.9c-1.1,0-2,0.9-2,2c0,1.1,0.9,2,2,2h7.8
		C90.7,618,91.5,617.1,91.5,616.1z"/>
	<path class="st5" d="M111.1,596.5c-1.1,0-2,0.9-2,2v4.6c-4.3-6.6-11.7-10.5-19.6-10.5c-13,0-23.5,10.5-23.5,23.5
		c0,9.7,5.9,18.4,14.9,21.9c0.2,0.1,0.5,0.1,0.7,0.1c0,0,0,0,0,0c1.1,0,2-0.9,2-2c0-0.8-0.5-1.5-1.2-1.8C75,631.4,70,624.1,70,616
		c0-10.8,8.8-19.6,19.6-19.6c7,0,13.5,3.7,16.9,9.8l-5.2,0c-1.1,0-2,0.9-2,2c0,1.1,0.9,2,2,2h5.9c3.2,0,5.9-2.6,5.9-5.9v-5.9
		C113.1,597.4,112.2,596.5,111.1,596.5z"/>
	<text transform="matrix(1 0 0 1 89.0205 634.4004)" class="st5  ">1min</text>
</g>
<path class="fondoB" d="M52.3,777.9h511.1c2.3,0,4.2-1.9,4.2-4.2v-84.9c0-2.3-1.9-4.2-4.2-4.2H52.3c-2.3,0-4.2,1.9-4.2,4.2v84.9
	C48.1,776,50,777.9,52.3,777.9"/>
<g>
	<path class="icon" d="M498.2,753.8c1.7,0,3.2,0.7,4.3,1.8c1.1,1.1,1.7,2.6,1.7,4.2c0,1.6-0.7,3.1-1.8,4.2c-1.1,1.1-2.6,1.8-4.2,1.8
		c-1.7,0-3.2-0.7-4.2-1.8c-1.1-1.1-1.8-2.6-1.8-4.2c0-1.7,0.7-3.2,1.8-4.2C495,754.4,496.5,753.8,498.2,753.8z"/>
	<path class="icon" d="M516,753.8c1.7,0,3.2,0.7,4.2,1.8c1.1,1.1,1.8,2.6,1.8,4.2c0,1.7-0.7,3.2-1.8,4.2c-1.1,1.1-2.6,1.8-4.2,1.8
		c-1.6,0-3.1-0.7-4.2-1.8c-1.1-1.1-1.8-2.6-1.8-4.2c0-1.6,0.7-3.1,1.8-4.2C512.8,754.4,514.3,753.8,516,753.8L516,753.8z"/>
	<path class="icon" d="M473.6,701c-1.2,0-2.1-1-2.1-2.1c0-1.2,1-2.1,2.1-2.1H485c1.1,0,1.9,0.8,2.1,1.8l2.7,12.3h37.3l0.4,0.1
		c1.1,0.2,1.9,1.4,1.6,2.5l-3.8,17.8c-0.2,1-1.1,1.7-2.1,1.7l-28.8-0.1l2.2,10.1h27.6c0.6,0,1.2,0.3,1.6,0.7l5.1,5.1
		c0.8,0.8,0.8,2.2,0,3c-0.8,0.8-2.2,0.8-3,0l-4.6-4.6h-28.4c-1,0-1.9-0.7-2.1-1.7l-9.6-44.5H473.6z"/>
</g>
<g>
	<path class="st5" d="M91.5,726.1v-9.8c0-1.1-0.9-2-2-2c-1.1,0-2,0.9-2,2v7.8h-5.9c-1.1,0-2,0.9-2,2c0,1.1,0.9,2,2,2h7.8
		C90.7,728.1,91.5,727.2,91.5,726.1z"/>
	<path class="st5" d="M111.1,706.6c-1.1,0-2,0.9-2,2v4.6c-4.3-6.6-11.7-10.5-19.6-10.5c-13,0-23.5,10.5-23.5,23.5
		c0,9.7,5.9,18.4,14.9,21.9c0.2,0.1,0.5,0.1,0.7,0.1c0,0,0,0,0,0c1.1,0,2-0.9,2-2c0-0.8-0.5-1.5-1.2-1.8C75,741.4,70,734.2,70,726.1
		c0-10.8,8.8-19.6,19.6-19.6c7,0,13.5,3.7,16.9,9.8l-5.2,0c-1.1,0-2,0.9-2,2c0,1.1,0.9,2,2,2h5.9c3.2,0,5.9-2.6,5.9-5.9v-5.9
		C113.1,707.4,112.2,706.6,111.1,706.6z"/>
	<text transform="matrix(1 0 0 1 89.0205 744.4482)" class="st5  ">1min</text>
</g>
<path class="icon" d="M532.1,512.7l-9.1-6.6v42h4.6c6,0,10.8-4.8,10.8-10.8v-12.2C538.5,520.2,536.1,515.6,532.1,512.7z M479.9,506.1
	l-9.1,6.6c-4,2.9-6.3,7.5-6.3,12.5v12.2c0,6,4.8,10.8,10.8,10.8h4.6V506.1z M495.3,486.5h3.1v6.1l-12.3,9v46.5h6.2v-15.4
	c0-5.1,4.1-9.2,9.2-9.2c5.1,0,9.2,4.1,9.2,9.2v15.4h6.2v-46.5l-12.3-9v-6.1h3.1c1.7,0,3.1-1.4,3.1-3.1c0-1.7-1.4-3.1-3.1-3.1h-3.1
	v-3.1c0-1.7-1.4-3.1-3.1-3.1c-1.7,0-3.1,1.4-3.1,3.1v3.1h-3.1c-1.7,0-3.1,1.4-3.1,3.1C492.3,485.2,493.6,486.5,495.3,486.5z
	 M504.6,532.7v15.4h-6.2v-15.4c0-1.7,1.4-3.1,3.1-3.1S504.6,531,504.6,532.7z"/>
<path class="icon" d="M515.9,612.2h-44.3v-16.6c0-4.6,3.7-8.3,8.3-8.3h27.7c4.6,0,8.3,3.7,8.3,8.3V612.2z M536.5,598.4l-10.3-10.3
	l-3.9,3.9l4.7,4.7v7.2c0,3.1,2.5,5.5,5.5,5.5v27.7c0,1.5-1.2,2.8-2.8,2.8c-1.5,0-2.8-1.2-2.8-2.8v-2.8c0-4.6-3.7-8.3-8.3-8.3h-2.8
	v-8.3h-44.3v36h44.3v-22.1h2.8c1.5,0,2.8,1.2,2.8,2.8v2.8c0,4.6,3.7,8.3,8.3,8.3s8.3-3.7,8.3-8.3v-34.8
	C538.1,600.8,537.5,599.4,536.5,598.4z"/>
<text transform="matrix(1 0 0 1 149.8147 171.1536)"><tspan x="0" y="0" class="contenidoTxt ">| Colegio Inmaculado Corazón de María</tspan><tspan x="0" y="17.6" class="contenidoTxt ">| Colegio Católico Cristo Rey</tspan><tspan x="0" y="35.2" class="contenidoTxt ">| Lorem Ipsum</tspan></text>
<text transform="matrix(1 0 0 1 149.8147 277.8283)"><tspan x="0" y="0" class="contenidoTxt ">| Colegio Inmaculado Corazón de María</tspan><tspan x="0" y="17.6" class="contenidoTxt ">| Colegio Católico Cristo Rey</tspan><tspan x="0" y="35.2" class="contenidoTxt ">| Lorem Ipsum</tspan></text>
<text transform="matrix(1 0 0 1 149.8147 387.8768)"><tspan x="0" y="0" class="contenidoTxt ">| Colegio Inmaculado Corazón de María</tspan><tspan x="0" y="17.6" class="contenidoTxt ">| Colegio Católico Cristo Rey</tspan><tspan x="0" y="35.2" class="contenidoTxt ">| Lorem Ipsum</tspan></text>
<text transform="matrix(1 0 0 1 149.8148 497.9246)"><tspan x="0" y="0" class="contenidoTxt ">| Colegio Inmaculado Corazón de María</tspan><tspan x="0" y="17.6" class="contenidoTxt ">| Colegio Católico Cristo Rey</tspan><tspan x="0" y="35.2" class="contenidoTxt ">| Lorem Ipsum</tspan></text>
<text transform="matrix(1 0 0 1 149.8151 607.9728)"><tspan x="0" y="0" class="contenidoTxt ">| Colegio Inmaculado Corazón de María</tspan><tspan x="0" y="17.6" class="contenidoTxt ">| Colegio Católico Cristo Rey</tspan><tspan x="0" y="35.2" class="contenidoTxt ">| Lorem Ipsum</tspan></text>
<text transform="matrix(1 0 0 1 149.8152 718.0209)"><tspan x="0" y="0" class="contenidoTxt ">| Colegio Inmaculado Corazón de María</tspan><tspan x="0" y="17.6" class="contenidoTxt ">| Colegio Católico Cristo Rey</tspan><tspan x="0" y="35.2" class="contenidoTxt ">| Lorem Ipsum</tspan></text>
</svg>
