<svg version="1.1" id="iconWhatsapp" xmlns="http://www.w3.org/2000/svg" xmlns:xlink="http://www.w3.org/1999/xlink" x="0px" y="0px"
	 viewBox="0 0 80 80" style="enable-background:new 0 0 80 80;" xml:space="preserve">
<style type="text/css">
	.iconWhatsapp{fill:gainsboro;}
</style>
<path class="iconWhatsapp" d="M40,0C17.94,0,0,17.94,0,40c0,6.89,1.78,13.66,5.15,19.63L0.06,77.79c-0.17,0.6-0.01,1.24,0.43,1.68
	C0.82,79.81,1.28,80,1.74,80c0.14,0,0.28-0.02,0.42-0.05l18.95-4.69C26.89,78.36,33.41,80,40,80c22.06,0,40-17.94,40-40
	S62.06,0,40,0z M60.12,54.11c-0.86,2.37-4.96,4.53-6.93,4.82c-1.77,0.26-4.01,0.37-6.47-0.4c-1.49-0.47-3.4-1.09-5.85-2.14
	C30.57,52,23.84,41.76,23.32,41.09c-0.51-0.68-4.19-5.5-4.19-10.49s2.65-7.44,3.59-8.46s2.05-1.27,2.74-1.27s1.37,0.01,1.97,0.04
	c0.63,0.03,1.48-0.24,2.31,1.74c0.86,2.03,2.91,7.02,3.16,7.53c0.26,0.51,0.43,1.1,0.09,1.78c-0.34,0.68-0.51,1.1-1.03,1.69
	c-0.51,0.59-1.08,1.32-1.54,1.78c-0.51,0.51-1.05,1.05-0.45,2.07s2.66,4.34,5.71,7.02c3.92,3.45,7.23,4.53,8.26,5.03
	c1.03,0.51,1.63,0.42,2.22-0.25c0.6-0.68,2.57-2.96,3.25-3.98c0.68-1.01,1.37-0.85,2.31-0.51c0.94,0.34,5.99,2.79,7.02,3.3
	c1.03,0.51,1.71,0.76,1.97,1.18C60.98,49.72,60.98,51.75,60.12,54.11z"/>
</svg>
