<svg version="1.1" id="iconFacebook" xmlns="http://www.w3.org/2000/svg" xmlns:xlink="http://www.w3.org/1999/xlink" x="0px" y="0px"
	 viewBox="0 0 80 80" style="enable-background:new 0 0 80 80;" xml:space="preserve">
<style type="text/css">
	.iconFacebook{fill:gainsboro;}
</style>
<path class="iconFacebook" d="M66.67,0H13.33C5.97,0,0,5.97,0,13.33v53.33C0,74.03,5.97,80,13.33,80h28.33V51.67h-10V40h10v-8.33
	c0-11.67,6.67-18.33,16.67-18.33c5.22,0,8.33,1.67,8.33,1.67v10H60c-4.77,0-6.67,3.49-6.67,6.67V40H65l-1.67,11.67h-10V80h13.33
	C74.03,80,80,74.03,80,66.67V13.33C80,5.97,74.03,0,66.67,0z"/>
</svg>
